<svg xmlns="http://www.w3.org/2000/svg" xmlns:svg="http://www.w3.org/2000/svg" xmlns:xlink="http://www.w3.org/1999/xlink" id="svg44" width="128" height="128" version="1.1"><metadata id="metadata48"/><defs id="defs16"><linearGradient id="linearGradient899"><stop style="stop-color:#646368;stop-opacity:1" id="stop895" offset="0"/><stop style="stop-color:#88878b;stop-opacity:1" id="stop909" offset=".06"/><stop style="stop-color:#77767b;stop-opacity:1" id="stop907" offset=".133"/><stop style="stop-color:#77767b;stop-opacity:1" id="stop905" offset=".827"/><stop style="stop-color:#9f9ea2;stop-opacity:1" id="stop903" offset=".915"/><stop style="stop-color:#656468;stop-opacity:1" id="stop897" offset="1"/></linearGradient><linearGradient id="a"><stop id="stop2" offset="0" stop-color="#3584e4"/><stop id="stop4" offset=".091" stop-color="#6ba5ec"/><stop id="stop6" offset=".173" stop-color="#3584e4"/><stop id="stop8" offset=".835" stop-color="#3584e4"/><stop id="stop10" offset=".922" stop-color="#8db9f0"/><stop id="stop12" offset="1" stop-color="#3584e4"/></linearGradient><linearGradient id="b" x1="7.164" x2="120" y1="56.174" y2="56.174" gradientUnits="userSpaceOnUse" xlink:href="#a"/><linearGradient id="linearGradient901" x1="7.165" x2="120" y1="56.174" y2="56.174" gradientUnits="userSpaceOnUse" xlink:href="#linearGradient899"/></defs><g id="g38" fill="none" stroke-linecap="round" style="fill:#62a0ea;fill-opacity:1"><path id="path18" stroke="#99c1f1" stroke-width="4" d="M28.512 118.492l8.023-25.426" style="fill:#62a0ea;fill-opacity:1;stroke:#62a0ea;stroke-opacity:1"/><path id="path20" stroke="#c8def7" d="M28.129 118.39l8.023-25.425" style="fill:#62a0ea;fill-opacity:1"/><path id="path22" stroke="#99c1f1" stroke-width="4" d="M42.512 118.492l8.023-25.426" style="fill:#62a0ea;fill-opacity:1;stroke:#62a0ea;stroke-opacity:1"/><path id="path24" stroke="#c8def7" d="M42.129 118.39l8.023-25.425" style="fill:#62a0ea;fill-opacity:1"/><path id="path26" stroke="#99c1f1" stroke-width="4" d="M56.512 118.492l8.023-25.426" style="fill:#62a0ea;fill-opacity:1;stroke:#62a0ea;stroke-opacity:1"/><path id="path28" stroke="#c8def7" d="M56.129 118.39l8.023-25.425" style="fill:#62a0ea;fill-opacity:1"/><path id="path30" stroke="#99c1f1" stroke-width="4" d="M70.512 118.492l8.023-25.426" style="fill:#62a0ea;fill-opacity:1;stroke:#62a0ea;stroke-opacity:1"/><path id="path32" stroke="#c8def7" d="M70.129 118.39l8.023-25.425" style="fill:#62a0ea;fill-opacity:1"/><path id="path34" stroke="#99c1f1" stroke-width="4" d="M84.512 118.492l8.023-25.426" style="fill:#62a0ea;fill-opacity:1;stroke:#62a0ea;stroke-opacity:1"/><path id="path36" stroke="#c8def7" d="M84.129 118.39l8.023-25.425" style="fill:#62a0ea;fill-opacity:1"/></g><path id="path40" fill="url(#b)" d="M79.492 24.348a28.926 28.926 0 00-26.265 16.879 21.711 21.711 0 00-9.899-2.414c-11.414.015-20.867 8.867-21.625 20.257-.023 0-.05 0-.074-.004-5.93 0-11.02 3.575-13.254 8.68h-1.21V69C7.164 80 15 88 26 88h72c14 0 22-9 22-22v-1.145h-1.023a17.36 17.36 0 00-10.602-10.582c.023-.328.04-.66.05-.992 0-15.98-12.952-28.933-28.933-28.933zm0 0" style="fill:url(#linearGradient901);fill-opacity:1"/><path id="path42" fill="#62a0ea" d="M79.492 18.063A28.926 28.926 0 0053.227 34.94a21.711 21.711 0 00-9.899-2.414c-11.414.012-20.867 8.868-21.625 20.258-.023-.004-.05-.004-.074-.004-7.988 0-14.469 6.477-14.469 14.465 0 7.992 6.48 14.469 14.469 14.469h81.012c9.586 0 17.359-7.774 17.359-17.36a17.358 17.358 0 00-11.625-16.367c.023-.332.04-.664.05-.992 0-15.98-12.952-28.933-28.933-28.933zm0 0" style="fill:#9a9996;fill-opacity:1"/></svg>