<svg xmlns="http://www.w3.org/2000/svg" width="128" height="128" viewBox="0 0 128 128"><g fill="none" stroke-linecap="round"><path stroke="#99c1f1" stroke-width="6" d="m 64 8 v 112"/><path stroke="#99c1f1" stroke-width="6" d="m 54 14 l 10 6 l 10 -6"/><path stroke="#99c1f1" stroke-width="6" d="m 54 114.476562 l 10 -6 l 10 6"/><path stroke="#fff" stroke-width="2" d="m 54 14 l 10 6 l 10 -6"/><path stroke="#fff" stroke-width="2" d="m 54 114.476562 l 10 -6 l 10 6"/><path stroke="#99c1f1" stroke-width="6" d="m 112.558594 36.101562 l -96.996094 56"/><path stroke="#99c1f1" stroke-width="6" d="m 102.359375 30.441406 l -0.195313 11.660156 l 10.195313 5.660157"/><path stroke="#99c1f1" stroke-width="6" d="m 15.347656 80.679688 l 10.195313 5.660156 l -0.195313 11.660156"/><path stroke="#fff" stroke-width="2" d="m 102.359375 30.441406 l -0.195313 11.660156 l 10.195313 5.660157"/><path stroke="#fff" stroke-width="2" d="m 15.347656 80.679688 l 10.195313 5.660156 l -0.195313 11.660156"/><path stroke="#99c1f1" stroke-width="6" d="m 112.585938 92.132812 l -96.996094 -56"/><path stroke="#99c1f1" stroke-width="6" d="m 112.386719 80.472656 l -10.195313 5.660156 l 0.195313 11.660157"/><path stroke="#99c1f1" stroke-width="6" d="m 25.371094 30.234375 l 0.199218 11.660156 l -10.199218 5.660157"/><g stroke="#fff" stroke-width="2"><path d="m 112.386719 80.472656 l -10.195313 5.660156 l 0.195313 11.660157"/><path d="m 64 8 v 112"/><path d="m 25.371094 30.234375 l 0.199218 11.660156 l -10.199218 5.660157"/><path d="m 112.558594 36.101562 l -96.996094 56"/><path d="m 112.585938 92.132812 l -96.996094 -56"/></g></g></svg>