<svg xmlns="http://www.w3.org/2000/svg" xmlns:svg="http://www.w3.org/2000/svg" xmlns:xlink="http://www.w3.org/1999/xlink" id="svg9" width="16" height="16" version="1.1"><metadata id="metadata15"/><g id="g846"><path id="a" fill="#2e3436" stroke-linecap="round" d="M 7.492,0.492 A 0.5,0.5 0 0 0 7,1 V 2.533 L 5.748,1.816 A 0.5,0.5 0 1 0 5.252,2.684 l 1.748,1 v 8.683 l -1.746,0.987 a 0.5,0.5 0 1 0 0.492,0.87 L 7,13.516 V 15 a 0.5,0.5 0 1 0 1,0 v -1.484 l 1.254,0.709 A 0.50017622,0.50017622 0 1 0 9.746,13.354 L 8,12.367 V 3.684 l 1.748,-1 A 0.5,0.5 0 1 0 9.252,1.816 L 8,2.533 V 1 A 0.5,0.5 0 0 0 7.492,0.492 Z" color="#000" font-family="sans-serif" font-weight="400" overflow="visible" style="line-height:normal;font-variant-ligatures:normal;font-variant-position:normal;font-variant-caps:normal;font-variant-numeric:normal;font-variant-alternates:normal;font-feature-settings:normal;text-indent:0;text-align:start;text-decoration:none;text-decoration-line:none;text-decoration-style:solid;text-decoration-color:#000;text-transform:none;text-orientation:mixed;shape-padding:0;isolation:auto;mix-blend-mode:normal;marker:none;fill:#99c1f1;fill-opacity:1"/><use id="use3" width="100%" height="100%" x="0" y="0" transform="rotate(-60,7.5000045,8.0000041)" xlink:href="#a"/><use id="use5" width="100%" height="100%" x="0" y="0" transform="rotate(-120,7.4999982,7.9999997)" xlink:href="#a"/></g></svg>